<svg width="163" height="163" viewBox="0 0 163 163" fill="none" xmlns="http://www.w3.org/2000/svg">
<g filter="url(#filter0_d_117_2)">
<circle cx="81.5" cy="81.5" r="77.5" fill="white"/>
</g>
<path d="M86.875 114.419C80.8083 114.419 75.7708 112.293 71.7625 108.041C67.7542 103.789 65.75 98.7104 65.75 92.8063V89.9625C61.1458 89.3667 57.2865 87.3162 54.1719 83.811C51.0573 80.3058 49.5 76.1813 49.5 71.4375V52.75H59.25V49.5H64.125V60.875H59.25V57.625H54.375V71.4113C54.375 75.2746 55.7156 78.5469 58.3969 81.2281C61.0781 83.9094 64.3417 85.25 68.1875 85.25C72.0333 85.25 75.2969 83.9094 77.9781 81.2281C80.6594 78.5469 82 75.2746 82 71.4113V57.625H77.125V60.875H72.25V49.5H77.125V52.75H86.875V71.4375C86.875 76.1813 85.3177 80.3058 82.2031 83.811C79.0885 87.3162 75.2292 89.3667 70.625 89.9625V92.8063C70.625 97.4104 72.1552 101.351 75.2156 104.628C78.276 107.905 82.1625 109.544 86.875 109.544C91.2625 109.544 95.0677 107.915 98.2906 104.656C101.514 101.398 103.125 97.4418 103.125 92.7872V86.55C101.229 86.0083 99.6719 84.9521 98.4531 83.3813C97.2344 81.8104 96.625 79.9958 96.625 77.9375C96.625 75.4549 97.4949 73.3446 99.2346 71.6067C100.974 69.8689 103.087 69 105.572 69C108.057 69 110.167 69.8689 111.9 71.6067C113.633 73.3446 114.5 75.4549 114.5 77.9375C114.5 79.9958 113.891 81.8104 112.672 83.3813C111.453 84.9521 109.896 86.0083 108 86.55V92.8063C108 98.8188 105.928 103.924 101.784 108.122C97.6406 112.32 92.6708 114.419 86.875 114.419ZM105.548 82C106.695 82 107.661 81.612 108.447 80.8361C109.232 80.0602 109.625 79.0988 109.625 77.9517C109.625 76.8047 109.237 75.8385 108.461 75.0531C107.685 74.2677 106.724 73.875 105.577 73.875C104.43 73.875 103.464 74.263 102.678 75.0389C101.893 75.8148 101.5 76.7763 101.5 77.9233C101.5 79.0703 101.888 80.0365 102.664 80.8219C103.44 81.6073 104.401 82 105.548 82Z" fill="black"/>
<defs>
<filter id="filter0_d_117_2" x="0" y="0" width="163" height="163" filterUnits="userSpaceOnUse" color-interpolation-filters="sRGB">
<feFlood flood-opacity="0" result="BackgroundImageFix"/>
<feColorMatrix in="SourceAlpha" type="matrix" values="0 0 0 0 0 0 0 0 0 0 0 0 0 0 0 0 0 0 127 0" result="hardAlpha"/>
<feOffset/>
<feGaussianBlur stdDeviation="2"/>
<feComposite in2="hardAlpha" operator="out"/>
<feColorMatrix type="matrix" values="0 0 0 0 0 0 0 0 0 0 0 0 0 0 0 0 0 0 1 0"/>
<feBlend mode="normal" in2="BackgroundImageFix" result="effect1_dropShadow_117_2"/>
<feBlend mode="normal" in="SourceGraphic" in2="effect1_dropShadow_117_2" result="shape"/>
</filter>
</defs>
</svg>
